<?xml version="1.0" standalone="no"?>
<!DOCTYPE svg PUBLIC "-//W3C//DTD SVG 20010904//EN"
 "http://www.w3.org/TR/2001/REC-SVG-20010904/DTD/svg10.dtd">
<svg version="1.0" xmlns="http://www.w3.org/2000/svg"
 width="200.000000pt" height="200.000000pt" viewBox="0 0 200.000000 200.000000"
 preserveAspectRatio="xMidYMid meet">

<g transform="translate(0.000000,200.000000) scale(0.100000,-0.100000)"
fill="#000000" stroke="none">
<path d="M876 1265 c-9 -9 -16 -26 -16 -39 0 -28 -18 -46 -46 -46 -28 0 -46
-23 -42 -52 2 -17 14 -26 45 -36 36 -12 43 -19 49 -48 8 -46 27 -60 60 -45 20
9 25 17 22 39 -2 22 -11 29 -46 40 -47 16 -63 46 -43 88 8 17 19 24 40 24 46
0 61 -10 61 -40 0 -31 24 -57 59 -62 13 -1 27 -10 31 -18 31 -67 37 -75 59
-75 25 0 36 14 45 57 5 20 15 29 48 40 35 10 44 18 46 40 2 19 -3 30 -17 38
-30 16 -57 -3 -65 -44 -7 -37 -21 -46 -67 -46 -21 0 -32 7 -40 24 -20 42 -4
72 43 88 35 11 44 18 46 40 3 22 -2 30 -22 39 -33 15 -52 1 -60 -46 -5 -25
-13 -36 -30 -41 -44 -11 -70 -1 -79 31 -19 64 -48 82 -81 50z"/>
<path d="M353 860 c-20 -8 -23 -17 -23 -65 0 -51 2 -56 27 -66 36 -13 67 -8
71 14 3 13 -3 17 -27 17 -29 0 -31 3 -31 35 0 32 2 35 31 35 24 0 30 4 27 18
-4 20 -42 26 -75 12z"/>
<path d="M466 854 c-16 -15 -22 -78 -10 -108 8 -20 66 -31 93 -17 17 10 21 21
21 64 0 29 -5 58 -12 65 -17 17 -74 15 -92 -4z m64 -59 c0 -24 -5 -35 -15 -35
-10 0 -15 11 -15 35 0 24 5 35 15 35 10 0 15 -11 15 -35z"/>
<path d="M604 856 c-3 -7 -4 -40 -2 -72 2 -44 7 -59 18 -59 9 0 17 13 20 34 5
32 6 32 21 15 9 -11 19 -27 22 -37 4 -10 13 -17 20 -14 19 6 17 142 -3 142 -8
0 -17 -10 -20 -23 l-5 -24 -22 26 c-25 29 -41 33 -49 12z"/>
<path d="M754 857 c-3 -8 -4 -41 -2 -73 l3 -59 44 -3 c28 -2 47 1 52 9 12 20
1 29 -32 29 -18 0 -28 4 -24 10 3 6 15 10 26 10 28 0 23 19 -8 32 l-28 11 35
6 c22 4 35 12 35 21 0 21 -93 27 -101 7z"/>
<path d="M903 860 c-20 -8 -23 -17 -23 -65 0 -51 2 -56 27 -66 36 -13 67 -8
71 14 3 13 -3 17 -28 17 -29 0 -31 2 -28 33 2 27 8 33 31 35 20 3 27 8 25 20
-4 20 -42 26 -75 12z"/>
<path d="M1000 850 c0 -11 7 -20 14 -20 11 0 16 -15 18 -52 3 -45 6 -53 23
-53 17 0 20 8 23 53 2 37 7 52 18 52 7 0 14 9 14 20 0 18 -7 20 -55 20 -48 0
-55 -2 -55 -20z"/>
<path d="M1145 840 c-21 -40 -20 -120 1 -120 9 0 18 9 21 20 7 26 33 26 40 0
7 -28 37 -22 41 8 2 12 -4 45 -13 72 -15 45 -20 50 -46 50 -21 0 -32 -7 -44
-30z m55 -36 c0 -8 -7 -14 -15 -14 -15 0 -21 21 -9 33 10 9 24 -2 24 -19z"/>
<path d="M1277 863 c-9 -8 -9 -56 -1 -105 6 -35 9 -38 41 -38 60 0 73 14 73
75 0 43 -4 56 -19 65 -22 11 -84 14 -94 3z m73 -68 c0 -24 -5 -35 -15 -35 -10
0 -15 11 -15 35 0 24 5 35 15 35 10 0 15 -11 15 -35z"/>
<path d="M1438 843 c-16 -40 -16 -115 0 -121 7 -2 16 5 19 17 3 12 13 21 23
21 10 0 20 -9 23 -21 3 -12 12 -19 19 -17 19 7 21 70 4 112 -13 30 -20 36 -46
36 -24 0 -33 -6 -42 -27z m59 -36 c-6 -20 -27 -19 -27 2 0 14 5 19 15 14 9 -3
14 -10 12 -16z"/>
<path d="M1588 863 c-23 -6 -25 -71 -3 -78 47 -15 50 -18 15 -24 -46 -8 -48
-35 -3 -39 50 -5 75 13 71 51 -2 27 -8 33 -30 35 -16 2 -28 7 -28 12 0 5 12
10 28 12 38 4 36 33 -3 35 -16 0 -38 -1 -47 -4z"/>
</g>
</svg>
